<?xml version="1.0" encoding="utf-8"?>
<!-- Generator: Adobe Illustrator 25.3.1, SVG Export Plug-In . SVG Version: 6.00 Build 0)  -->
<svg version="1.1" id="Layer_1" xmlns="http://www.w3.org/2000/svg" xmlns:xlink="http://www.w3.org/1999/xlink" x="0px" y="0px"
	 viewBox="0 0 153.5 57.8" style="enable-background:new 0 0 153.5 57.8;" xml:space="preserve">
<style type="text/css">
	.st0{clip-path:url(#SVGID_2_);}
</style>
<g>
	<defs>
		<rect id="SVGID_1_" width="153.5" height="57.8"/>
	</defs>
	<clipPath id="SVGID_2_">
		<use xlink:href="#SVGID_1_"  style="overflow:visible;"/>
	</clipPath>
	<path class="st0" d="M1.7,16c1.2-1.2,2.5-1.2,4.2-2.8c0.6-0.5,1.2-1.3,1.4-2c1.2-4.5,4.1-6.6,8.6-6.5c0.9,0,2.2-0.6,2.8-1.3
		c2.7-3.5,5.9-4.4,9.8-2.6c0.9,0.4,2.1,0.8,3,0.5C37.7-1,40.8,0.1,44,6.1c4.1-0.4,7.5,1,10.2,5.4c-2,0-3.4-0.1-4.8,0
		c-2.1,0.1-4.4-0.1-6.3,0.7c-3.8,1.5-4.7,5.2-1.9,8.2c2,2.1,2.8,4.3,3.1,7.1c0.6,4.5,4,6.8,7.9,8.4c-2,4.3-4.6,5.2-10.1,3.7
		c-5.3,5.4-9.1,5.5-14.4,0.3c-7,4.4-9,4.1-14.5-2.2c-0.4-0.4-1.1-0.7-1.7-0.9C4.7,35.4,3,33,4.2,26.5c-0.1-3.2-2.1-2.5-3.6-4.7
		S0.3,17.4,1.7,16"/>
	<path class="st0" d="M7.4,39c5,0.9,8.2,4.6,8.3,8.8c0,2,0.3,4.1,0,6.1c-0.2,1.2-1.3,2.2-2,3.3c-1.1-0.8-3-1.5-3.3-2.5
		C9.2,49.7,8.4,44.5,7.4,39"/>
	<path class="st0" d="M25.2,45c0.1,3.1,0.5,6.3,0.3,9.4c-0.1,1-1.6,2.8-2.1,2.7c-1.3-0.2-3-1.2-3.4-2.3c-0.9-2.9-1.2-5.9-1.8-9.1
		C20.6,45.5,22.7,45.3,25.2,45"/>
	<path class="st0" d="M34.8,46.9c2.7-1,4.9-1.8,7.4-2.8c-0.3,3.6-0.3,7.1-0.8,10.5c-0.1,1-1.6,2.4-2.5,2.4c-0.9,0-2.4-1.3-2.7-2.3
		C35.5,52.3,35.2,49.6,34.8,46.9"/>
	<path class="st0" d="M44.1,56.9c0.3-4,0.4-8.1,0.9-12.1c0.1-0.8,1.5-1.4,2.8-2.5c0,4.8,0.2,8.8-0.1,12.7c-0.1,1-1.6,1.9-2.5,2.9
		C44.8,57.5,44.4,57.2,44.1,56.9"/>
	<path class="st0" d="M145.1,50c0.4,0,0.7,0,0.9,0c0.5,0,1,0.1,1.4,0.2c0.5,0.1,0.9,0.3,1.2,0.5c0.3,0.2,0.6,0.5,0.8,0.9
		c0.2,0.4,0.3,0.9,0.3,1.5c0,1.1-0.2,1.9-0.7,2.4c-0.4,0.5-1.2,0.7-2.3,0.7c-0.8,0-1.5-0.2-1.9-0.6c-0.4-0.4-0.6-0.9-0.6-1.5v-4
		C144.4,50.1,144.7,50,145.1,50 M144.6,44.6c0.1-0.3,0.1-0.6,0.1-0.7c0-0.2,0.1-0.2,0.1-0.1c0.1-0.3,0.4-0.5,0.9-0.5
		c0.1,0,0.1,0,0.2,0c0,0,0.1,0,0.1,0c0.2-0.1,0.3-0.2,0.3-0.3c0-0.2-0.1-0.3-0.3-0.3h-0.2c0,0-0.1,0-0.1,0c0,0-0.2,0-0.5,0
		c-0.3,0-0.5,0-0.6,0c-0.1,0-0.4,0-0.8,0c-0.3,0-0.5,0-0.8,0c-0.3,0-0.6,0-0.8,0c-0.3,0-0.5,0-0.8,0c-0.2,0-0.4,0-0.6,0h-0.4
		c-0.1,0-0.2,0-0.2,0c0,0-0.1,0-0.2,0h-0.2c-0.2,0-0.3,0.1-0.3,0.3c0,0.1,0.1,0.2,0.3,0.3c0.1,0,0.1,0,0.1,0c0,0,0.1,0,0.2,0
		c0.2,0,0.4,0,0.6,0.1c0.2,0.1,0.3,0.2,0.4,0.5c0.1,0.3,0.2,0.6,0.2,1.1c0,0.5,0.1,1.2,0.1,2c0,0.7,0,1.5,0,2.3
		c0,0.8-0.1,1.6-0.1,2.4c0,0.8-0.1,1.5-0.2,2.1c-0.1,0.6-0.1,1.1-0.2,1.5c-0.1,0.4-0.3,0.6-0.6,0.8c-0.3,0.1-0.7,0.2-1.2,0.2
		c-0.2,0-0.3,0.1-0.3,0.3c0,0.2,0.1,0.3,0.2,0.3h2.5c0.7,0,1.4,0,2.3,0.1c0.8,0,1.6,0.1,2.2,0.1c0.9,0,1.8-0.1,2.7-0.3
		c0.9-0.2,1.7-0.5,2.4-0.9c0.7-0.4,1.3-0.9,1.7-1.5c0.4-0.6,0.7-1.4,0.7-2.2c0-0.7-0.3-1.3-0.8-1.8c-0.5-0.4-1.1-0.8-1.9-1
		c-0.8-0.2-1.6-0.4-2.4-0.5c-0.8-0.1-1.6-0.1-2.3-0.1c-0.2,0-0.5,0-0.9,0c-0.3,0-0.7,0-1,0v-0.2v-0.8
		C144.5,46,144.6,44.9,144.6,44.6 M132.9,48.6c-0.4,0-0.9,0.1-1.5,0.1c-0.6,0-1.3,0-2.1,0h-1.4h-2.1c0-1.5,0.1-2.7,0.3-3.6
		c0.1-0.9,0.3-1.5,0.4-1.7c0.1-0.2,0.6-0.3,1.4-0.3c0.3,0,0.5-0.1,0.5-0.3c0-0.1,0-0.2-0.1-0.2c-0.1-0.1-0.1-0.1-0.3-0.1
		c-0.4,0-0.9,0-1.5,0.1s-1.2,0.1-1.7,0.1c-0.7,0-1.5,0-2.2,0c-0.7,0-1.2-0.1-1.5-0.1c-0.3,0-0.4,0.1-0.4,0.3c0,0.2,0.2,0.3,0.5,0.3
		c0.5,0,0.9,0,1.2,0.1c0.2,0.1,0.4,0.2,0.5,0.5c0,0.2,0.1,0.6,0.1,1.4v3.4c0,2.1-0.1,3.9-0.2,5.1c-0.1,1.3-0.3,2.1-0.4,2.3
		c-0.1,0.2-0.6,0.3-1.4,0.3c-0.3,0-0.5,0.1-0.5,0.3c0,0.1,0,0.2,0.1,0.2c0.1,0.1,0.1,0.1,0.3,0.1c0.4,0,0.9,0,1.5-0.1
		c0.6,0,1.2-0.1,1.7-0.1c0.7,0,1.5,0,2.2,0c0.7,0,1.2,0.1,1.5,0.1c0.3,0,0.4-0.1,0.4-0.3c0-0.2-0.2-0.3-0.5-0.3
		c-0.5,0-0.9,0-1.2-0.1c-0.2-0.1-0.4-0.2-0.5-0.5c0-0.2-0.1-0.6-0.1-1.4V51v-0.8c0.2,0,0.4,0,0.6,0h0.6l3.8-0.1c0.3,0,0.7,0,1.1,0
		c0.4,0,0.7,0,1.1,0.1c0,1.7-0.1,3.1-0.3,4.1c-0.1,1-0.3,1.6-0.4,1.9c-0.1,0.2-0.6,0.3-1.4,0.3c-0.3,0-0.5,0.1-0.5,0.3
		c0,0.1,0,0.2,0.1,0.2c0.1,0.1,0.1,0.1,0.3,0.1c0.4,0,0.9,0,1.5-0.1c0.6,0,1.2-0.1,1.7-0.1c0.7,0,1.5,0,2.2,0c0.7,0,1.2,0.1,1.5,0.1
		c0.3,0,0.4-0.1,0.4-0.3c0-0.2-0.2-0.3-0.5-0.3c-0.5,0-0.9,0-1.2-0.1c-0.2-0.1-0.4-0.2-0.5-0.5c0-0.2-0.1-0.6-0.1-1.4V51
		c0-2.1,0.1-3.9,0.2-5.1c0.1-1.3,0.3-2.1,0.4-2.3c0.1-0.2,0.6-0.3,1.4-0.3c0.3,0,0.5-0.1,0.5-0.3c0-0.1,0-0.2-0.1-0.2
		c-0.1-0.1-0.1-0.1-0.3-0.1c-0.4,0-0.9,0-1.5,0.1s-1.2,0.1-1.7,0.1c-0.7,0-1.5,0-2.2,0c-0.7,0-1.2-0.1-1.5-0.1
		c-0.3,0-0.4,0.1-0.4,0.3c0,0.2,0.2,0.3,0.5,0.3c0.5,0,0.9,0,1.2,0.1c0.2,0.1,0.4,0.2,0.5,0.5c0,0.2,0.1,0.6,0.1,1.4V48.6
		L132.9,48.6z M122.2,54.1c0-0.2-0.1-0.3-0.3-0.3c-0.1,0-0.2,0.1-0.4,0.2c-0.2,0.1-0.4,0.2-0.6,0.3c-0.2,0.1-0.5,0.2-0.7,0.3
		c-0.2,0.1-0.5,0.1-0.7,0.1c-0.4,0-0.8-0.2-1.1-0.6c-0.3-0.4-0.5-1-0.7-1.7c-0.2-0.7-0.3-1.5-0.4-2.4c-0.1-0.9-0.2-1.8-0.2-2.8
		c0-0.6-0.1-1.2-0.1-1.8c0-0.6-0.2-1-0.4-1.5c-0.2-0.4-0.5-0.7-0.9-1c-0.4-0.2-1-0.3-1.8-0.3c-0.5,0-1.1,0.1-1.8,0.2
		c-0.7,0.2-1.3,0.4-2,0.6c-0.7,0.2-1.3,0.5-1.9,0.8c-0.6,0.3-1.2,0.5-1.6,0.8c0,0.1-0.1,0.2-0.1,0.3c0,0.3,0.1,0.5,0.3,0.7
		c0.2,0.2,0.5,0.3,0.7,0.3c0.2,0,0.2-0.1,0.3-0.2c0-0.1,0.1-0.3,0.2-0.5c0.1-0.2,0.3-0.4,0.6-0.6c0.3-0.2,0.6-0.4,0.9-0.5
		c0.3-0.2,0.7-0.2,1.1-0.2c0.5,0,0.9,0.1,1.2,0.2s0.6,0.4,0.8,0.7c0.2,0.3,0.4,0.7,0.6,1.2c0.2,0.5,0.3,1,0.4,1.6
		c-0.3,0.2-0.7,0.4-1.3,0.7c-0.6,0.3-1.2,0.6-1.9,0.9c-0.7,0.3-1.3,0.6-2,0.9c-0.6,0.3-1.1,0.6-1.5,0.7c-0.8,0.4-1.3,0.8-1.7,1.2
		c-0.4,0.4-0.6,0.9-0.6,1.5c0,0.4,0.1,0.7,0.2,1.1c0.1,0.3,0.3,0.7,0.6,0.9c0.3,0.3,0.6,0.5,0.9,0.6c0.4,0.2,0.8,0.2,1.3,0.2
		c0.6,0,1.2-0.1,1.9-0.4c0.7-0.2,1.3-0.5,1.9-0.9c0.6-0.3,1.2-0.7,1.7-1.1c0.5-0.4,1-0.7,1.3-1c0.1,0.5,0.2,0.9,0.3,1.4
		c0.1,0.4,0.2,0.8,0.3,1.1c0.1,0.3,0.3,0.6,0.5,0.8c0.2,0.2,0.4,0.3,0.6,0.3c0.2,0,0.5-0.1,0.8-0.2c0.4-0.1,0.7-0.3,1.2-0.5
		c0.4-0.2,0.9-0.4,1.3-0.7c0.4-0.2,0.8-0.5,1.2-0.7c0.4-0.2,0.7-0.4,0.9-0.5c0.2-0.1,0.4-0.2,0.4-0.3
		C122.2,54.3,122.2,54.2,122.2,54.1 M114.4,52.9c-0.1,0.1-0.2,0.2-0.4,0.4c-0.1,0.1-0.3,0.2-0.5,0.4c-0.2,0.2-0.5,0.3-0.9,0.5
		c-0.3,0.2-0.7,0.3-1.1,0.5c-0.4,0.1-0.8,0.2-1.1,0.2c-0.7,0-1.2-0.2-1.5-0.6c-0.3-0.4-0.5-0.9-0.5-1.4c0-0.4,0.1-0.7,0.3-1
		c0.2-0.3,0.6-0.6,1-0.8c0.2-0.2,0.5-0.3,0.8-0.5c0.3-0.2,0.7-0.4,1.1-0.5c0.4-0.2,0.8-0.3,1.1-0.5c0.4-0.2,0.7-0.3,1-0.4
		c0,0.1,0.1,0.2,0.1,0.5c0,0.2,0.1,0.5,0.2,0.9c0.1,0.3,0.1,0.7,0.2,1.1c0.1,0.4,0.1,0.7,0.2,1C114.5,52.6,114.5,52.8,114.4,52.9
		 M99.7,48.4c0.5-0.2,0.9-0.4,1.3-0.6c0.4-0.2,0.8-0.5,1-0.9c0.3-0.4,0.4-0.8,0.4-1.3c0-0.5-0.2-0.9-0.5-1.3c-0.3-0.4-0.8-0.7-1.4-1
		c-0.6-0.3-1.2-0.5-1.9-0.6c-0.7-0.1-1.4-0.2-2.1-0.2c-0.6,0-1.2,0-1.8,0.1c-0.6,0.1-1.1,0.2-1.5,0.4c-0.4,0.2-0.8,0.4-1,0.6
		c-0.2,0.2-0.4,0.5-0.4,0.9c0,0.6,0.1,1,0.3,1.3c0.2,0.3,0.4,0.5,0.5,0.5c0.1,0,0.2-0.1,0.2-0.3c0.1-0.4,0.2-0.7,0.4-1
		c0.1-0.3,0.3-0.6,0.5-0.8c0.2-0.2,0.5-0.4,0.8-0.5s0.8-0.2,1.4-0.2c0.4,0,0.7,0,1.1,0.1c0.3,0.1,0.7,0.2,0.9,0.4
		c0.3,0.2,0.5,0.4,0.7,0.7c0.2,0.3,0.3,0.6,0.3,1c0,0.6-0.1,1-0.4,1.4c-0.2,0.3-0.6,0.6-0.9,0.8c-0.4,0.2-0.8,0.4-1.3,0.5
		c-0.5,0.1-1,0.1-1.5,0.2c-0.3,0-0.5,0.1-0.6,0.2s-0.1,0.2-0.1,0.4c0,0.4,0.3,0.5,0.8,0.5c1.6,0,2.8,0.3,3.6,0.8
		c0.8,0.5,1.2,1.5,1.2,2.8c0,0.5-0.1,0.9-0.3,1.3c-0.2,0.4-0.4,0.6-0.8,0.9c-0.3,0.2-0.7,0.4-1.2,0.5C96.9,56,96.5,56,95.9,56
		c-1,0-1.8-0.2-2.4-0.6c-0.6-0.4-0.9-1-1.1-1.7c0-0.2-0.1-0.3-0.3-0.3c-0.2,0-0.3,0.1-0.4,0.3c0,0.2-0.1,0.4-0.1,0.7
		c0,0.3-0.1,0.6-0.1,0.8c0,0.5,0.1,0.9,0.3,1.1c0.2,0.3,0.5,0.4,0.8,0.6c0.3,0.1,0.7,0.2,1.1,0.2c0.4,0,0.7,0,1.1,0
		c1.4,0,2.6-0.2,3.7-0.5c1.1-0.3,1.9-0.7,2.6-1.2c0.7-0.5,1.2-1,1.6-1.5c0.3-0.6,0.5-1.1,0.5-1.6c0-0.6-0.2-1.1-0.5-1.6
		c-0.3-0.4-0.8-0.8-1.3-1.1c-0.5-0.3-1-0.5-1.6-0.7c-0.6-0.2-1.1-0.3-1.6-0.3C98.8,48.7,99.2,48.6,99.7,48.4 M85.7,49.6
		c0,0.2-0.1,0.3-0.3,0.3c-0.2,0-0.5,0.1-1,0.1c-0.6,0-1.2-0.1-1.8-0.2c-0.5-0.1-1-0.3-1.4-0.6c-0.4-0.3-0.7-0.7-0.9-1.2
		c-0.2-0.5-0.3-1.1-0.3-1.9c0-1,0.3-1.8,0.9-2.3c0.6-0.5,1.5-0.8,2.6-0.8c0.2,0,0.5,0,0.7,0.1c0.2,0,0.5,0.1,0.7,0.2
		c0.2,0.1,0.4,0.2,0.5,0.3c0.1,0.1,0.2,0.2,0.2,0.3c0,0.4,0,0.9,0.1,1.3c0,0.5,0,0.9,0.1,1.4c0,0.5,0,0.9,0,1.3v1.1V49.6z
		 M90.1,42.4h-1.2c-0.5,0-1,0-1.6,0c-0.2,0-0.5,0-0.9,0c-0.4,0-0.8,0-1.3-0.1c-0.5,0-1-0.1-1.6-0.1s-1.1,0-1.6,0
		c-0.9,0-1.6,0.1-2.3,0.3c-0.7,0.2-1.2,0.5-1.6,0.9c-0.4,0.4-0.7,0.8-1,1.3c-0.2,0.5-0.3,1-0.3,1.5c0,0.5,0.1,1,0.3,1.5
		c0.2,0.5,0.5,0.9,0.9,1.3c0.4,0.4,0.9,0.7,1.4,1c0.6,0.3,1.2,0.4,1.9,0.4c-0.2,0-0.4,0.2-0.8,0.6c-0.4,0.4-0.8,0.8-1.3,1.3
		c-0.5,0.5-1,1.1-1.5,1.7c-0.5,0.6-0.9,1.1-1.3,1.6c-0.3,0.4-0.6,0.6-0.8,0.7c-0.2,0.1-0.6,0.2-1,0.2c-0.3,0-0.4,0-0.5-0.1
		c0,0,0,0.1,0,0.2c0,0.1,0,0.1,0,0.2c0,0.1,0.1,0.2,0.2,0.2c0.6,0,1.8,0,3.4,0.1c0.2,0,0.3,0,0.5,0c0.2,0,0.3,0,0.4,0
		c0.1,0,0.2,0,0.3-0.1s0.2-0.2,0.4-0.4c0.2-0.3,0.5-0.6,0.8-1c0.3-0.4,0.7-0.9,1.1-1.3s0.8-1,1.2-1.4c0.4-0.5,0.8-0.9,1.2-1.3
		c0.2-0.2,0.3-0.3,0.4-0.4c0.1-0.1,0.3-0.2,0.4-0.2c0.1,0,0.3-0.1,0.5-0.1c0.2,0,0.4,0,0.7,0c0.2,0,0.3,0,0.3,0c0,0,0,0,0,0.1v0.7
		v0.6c0,0.2,0,0.4,0,0.7c0,0.3,0,0.6,0,1c0,0.9-0.1,1.6-0.2,2c-0.1,0.4-0.4,0.6-0.9,0.6c0,0-0.1,0.1-0.1,0.2c0,0.2,0,0.3,0.1,0.3
		c0.4,0,1,0,1.6-0.1c0.6,0,1.1-0.1,1.6-0.1c0.5,0,0.9,0,1.2,0c0.3,0,0.7,0,1.3,0c0,0,0.1-0.1,0.1-0.2c0-0.2,0-0.3-0.1-0.3
		c-0.7,0-1.2-0.4-1.3-1.1c-0.1-0.3-0.1-0.7-0.1-1.2c0-0.5-0.1-1.1-0.1-1.8c0-0.7,0-1.3,0-2.1c0-0.7,0-1.5,0-2.2v-1
		c0-0.4,0-0.9,0-1.6c0-0.8,0.1-1.5,0.3-1.9c0.1-0.4,0.5-0.7,1-0.7c0,0,0.1,0,0.2,0c0.1,0,0.2,0,0.2,0c0.1,0,0.1-0.1,0.1-0.2
		c0-0.1,0-0.2-0.1-0.3c0-0.1-0.1-0.1-0.2-0.1H90.1z M62.1,37.4c0.2-0.2,0.5-0.4,0.8-0.5c0.3-0.1,0.6-0.2,0.9-0.3
		c0.3-0.1,0.6-0.1,0.8-0.1c0.4,0,0.8,0.1,1.2,0.3c0.4,0.2,0.7,0.4,1,0.8c0.3,0.3,0.5,0.8,0.7,1.3c0.2,0.5,0.3,1.1,0.3,1.8
		c0,1-0.1,1.7-0.4,2.3c-0.3,0.5-0.6,0.9-0.9,1.2c-0.2,0.2-0.3,0.3-0.5,0.4c-0.2,0.1-0.4,0.2-0.6,0.2c-0.2,0.1-0.4,0.1-0.7,0.1
		c-0.3,0-0.6,0-0.9,0c-0.2,0-0.5,0-0.8,0c-0.3,0-0.6,0-0.8,0c-0.3,0-0.5,0-0.7-0.1c-0.2,0-0.3-0.1-0.3-0.1c0-0.7,0-1.4,0.1-2.1
		c0-0.7,0.1-1.3,0.1-1.9c0-0.6,0.1-1.1,0.1-1.5c0-0.4,0.1-0.8,0.1-1C61.7,37.9,61.8,37.6,62.1,37.4 M61.2,47.3v-0.7
		c0-0.2,0-0.4,0-0.7c0.2,0,0.6,0,1,0c0.5,0,1,0,1.5,0c0.9,0,1.7,0.1,2.5,0.3c0.7,0.2,1.4,0.4,1.9,0.8c0.5,0.4,0.9,0.9,1.2,1.5
		c0.3,0.6,0.4,1.4,0.4,2.3c0,1-0.1,1.8-0.3,2.5c-0.2,0.7-0.5,1.3-0.9,1.7c-0.4,0.4-0.8,0.8-1.4,1c-0.5,0.2-1.1,0.3-1.7,0.3
		c-0.6,0-1.1-0.1-1.5-0.2c-0.5-0.2-0.9-0.4-1.2-0.6c-0.3-0.3-0.6-0.6-0.8-0.9c-0.2-0.3-0.4-0.6-0.4-0.9c0-0.2-0.1-0.6-0.1-1
		c0-0.4-0.1-1.1-0.1-2.1V47.3z M60.1,56.7c0.5,0.1,1.1,0.3,1.7,0.4c0.6,0.1,1.1,0.2,1.7,0.3c0.5,0.1,1,0.1,1.3,0.1
		c0.6,0,1.3-0.1,2-0.3c0.7-0.2,1.4-0.4,2.1-0.7c0.7-0.3,1.3-0.7,2-1.2c0.6-0.5,1.2-1,1.7-1.5c0.5-0.6,0.9-1.2,1.2-1.8
		c0.3-0.7,0.4-1.3,0.4-2c0-0.9-0.2-1.7-0.7-2.3c-0.5-0.6-1.1-1.1-1.8-1.5c-0.7-0.4-1.5-0.6-2.3-0.8C68.4,45.1,67.7,45,67,45
		c0.4-0.2,0.9-0.4,1.5-0.7c0.5-0.3,1-0.7,1.5-1.2c0.5-0.5,0.9-1,1.2-1.6c0.3-0.6,0.5-1.3,0.5-2c0-0.7-0.2-1.2-0.5-1.7
		c-0.3-0.5-0.8-0.9-1.3-1.2s-1.2-0.5-2-0.7c-0.8-0.1-1.6-0.2-2.5-0.2c-0.7,0-1.3,0.1-1.9,0.2c-0.5,0.2-1,0.3-1.5,0.5
		c-0.5,0.2-0.9,0.4-1.3,0.5S59.7,37,59.2,37c-0.4,0-0.8,0-1.3,0c-0.5,0-1,0-1.4-0.1c-0.4,0-0.8-0.1-1.2-0.1s-0.6,0-0.7,0
		c-0.2,0-0.4,0.2-0.4,0.5c0,0.1,0,0.2,0.1,0.3c0.1,0.1,0.2,0.1,0.3,0.1c0.1,0,0.3,0,0.5,0c0.2,0,0.5,0,0.7,0c0.2,0,0.5,0.1,0.7,0.1
		s0.4,0.2,0.6,0.3c0.2,0.2,0.4,1,0.5,2.4c0.1,1.4,0.2,3.3,0.2,5.7c0,1.1,0,2.1,0,3.1c0,1-0.1,1.9-0.1,2.6c0,0.8-0.1,1.5-0.2,2
		c-0.1,0.6-0.2,1-0.2,1.2c-0.2,0.4-0.4,0.8-0.7,1c-0.3,0.3-0.7,0.4-1.1,0.4c-0.3,0-0.5,0-0.7,0c-0.2,0-0.4-0.1-0.5-0.3
		c-0.1-0.1-0.1-0.1-0.2-0.1c-0.1,0-0.1,0.1-0.1,0.1c0,0.1-0.1,0.1-0.1,0.2c0,0.1,0,0.2,0,0.3c0,0.2,0.1,0.4,0.3,0.5
		c0.2,0.1,0.5,0.1,0.9,0.1c0.7,0,1.4-0.1,2.1-0.4c0.7-0.3,1.2-0.5,1.6-0.8C59.1,56.4,59.6,56.5,60.1,56.7"/>
	<path class="st0" d="M66.3,23.1c-1.9-5.7-5.6-8.9-11.3-9.2c-2.8-0.1-5.6-0.4-8.4-0.2c-1.4,0.1-2.8,1.4-4.1,2.2
		c0.7,1.4,1.1,3.1,2.1,4.1c1.2,1.3,1.8,2.3,1.7,4.3c-0.3,4.2,1.4,7.2,4.9,8.4c2.5,0.9,5.1,1.2,7.7,1.2c4,0.1,5.3-0.3,6.4-4.8
		c0.2-0.7,0.8-1.8,1.1-2.5C67,25.8,67.1,24.3,66.3,23.1z M54.2,23c-0.8-0.3-2.6-0.1-1.3-3.8c0,0,3.4,0.3,3.6,2.1
		C56.8,23,55,23.2,54.2,23z"/>
</g>
</svg>
